<?xml version="1.0" standalone="no"?>
<!DOCTYPE svg PUBLIC "-//W3C//DTD SVG 20010904//EN"
 "http://www.w3.org/TR/2001/REC-SVG-20010904/DTD/svg10.dtd">
<svg version="1.0" xmlns="http://www.w3.org/2000/svg"
 width="3840.000000pt" height="2160.000000pt" viewBox="0 0 3840.000000 2160.000000"
 preserveAspectRatio="xMidYMid meet">

<g transform="translate(0.000000,2160.000000) scale(0.100000,-0.100000)"
fill="#ED0C0C" stroke="none">
<path d="M8160 20710 c0 -97 -3 -130 -12 -131 -7 -1 -66 -1 -130 -1 l-118 0 0
-1899 0 -1899 733 -2 732 -3 0 -5915 0 -5915 -732 -3 -733 -2 0 -1995 0 -1995
4975 0 4975 0 -2 1992 -3 1993 -755 5 -755 5 -3 2163 -2 2162 1064 0 1064 0
82 -127 c44 -71 295 -456 556 -858 261 -401 556 -856 655 -1010 99 -154 211
-327 249 -385 38 -58 92 -141 120 -185 28 -44 143 -222 256 -395 113 -173 252
-387 309 -475 57 -88 209 -322 338 -520 129 -198 232 -363 230 -367 -2 -5
-353 -8 -779 -8 l-774 0 0 -1995 0 -1995 5290 0 5290 0 0 1995 0 1995 -977 0
-978 0 -46 73 c-26 39 -158 243 -294 452 -136 209 -338 520 -448 690 -298 463
-320 497 -472 730 -77 118 -161 247 -187 287 -25 40 -163 252 -305 470 -351
541 -723 1114 -948 1463 -103 160 -213 328 -243 375 -30 47 -75 117 -100 155
-25 39 -96 147 -157 240 -61 94 -121 186 -133 206 l-22 36 168 110 c336 222
573 414 861 697 485 476 844 970 1141 1571 227 460 351 816 479 1375 44 190
93 565 112 856 11 167 8 679 -5 759 -2 17 -7 66 -11 110 -7 90 -8 103 -35 303
-30 217 -106 572 -162 757 -77 257 -173 525 -255 710 -50 115 -184 386 -236
480 -75 135 -83 148 -152 261 -230 373 -496 707 -834 1045 -280 280 -543 498
-855 707 -789 532 -1715 865 -2646 951 -63 6 -142 14 -175 18 -33 3 -3243 8
-7132 10 l-7073 3 0 -130z m12050 -3952 c387 -82 633 -210 880 -457 280 -281
434 -604 500 -1050 16 -111 14 -430 -4 -534 -35 -201 -73 -321 -151 -482 -199
-412 -554 -744 -995 -932 -95 -40 -139 -55 -280 -91 -184 -48 -134 -47 -2035
-47 l-1790 0 -3 1808 -2 1808 1902 -4 c1686 -3 1912 -5 1978 -19z"/>
</g>
</svg>
